<?xml version="1.0" encoding="UTF-8"?>
<svg width="45px" height="45px" viewBox="0 0 45 45" version="1.1" xmlns="http://www.w3.org/2000/svg" xmlns:xlink="http://www.w3.org/1999/xlink">
    <!-- Generator: Sketch 45.2 (43514) - http://www.bohemiancoding.com/sketch -->
    <title>admission</title>
    <desc>Created with Sketch.</desc>
    <defs></defs>
    <g id="Page-1" stroke="none" stroke-width="1" fill="none" fill-rule="evenodd">
        <g id="admission" fill-rule="nonzero" fill="#FFFFFF">
            <g transform="translate(11.000000, 9.000000)">
                <rect id="Rectangle-path" x="4.4348985" y="20.2172501" width="9.26172795" height="1.76220274"></rect>
                <rect id="Rectangle-path" x="4.43294397" y="13.9514232" width="14.0952765" height="1.76181184"></rect>
                <rect id="Rectangle-path" x="4.43294397" y="17.084923" width="14.0952765" height="1.76181184"></rect>
                <g id="Group" transform="translate(4.246873, 3.127245)">
                    <path d="M5.66461401,2.5115689 C5.64037786,2.50726894 5.61496899,2.5115689 5.59112374,2.5182143 C5.5813511,2.2355895 5.52818793,1.96586459 5.44023415,1.71607587 C5.21116343,1.06443613 4.74012211,0.561731442 4.16431806,0.371751288 C4.00013768,0.318197212 3.82853009,0.288488382 3.65105892,0.288488382 C2.84696597,0.288488382 2.15545384,0.878365032 1.86032006,1.71607587 C1.77236629,1.96586459 1.72037584,2.23637132 1.70903957,2.52055973 C1.68480342,2.51195981 1.65939455,2.50765985 1.6351584,2.51195981 C1.48192338,2.5322869 1.39006055,2.78676649 1.43110564,3.08150937 C1.47136893,3.37547043 1.6281221,3.59672303 1.78135712,3.57522322 C1.81067505,3.57131417 1.83921116,3.55841428 1.86344731,3.53847809 C2.16014471,4.37227988 2.84892049,4.95942019 3.65105892,4.95942019 C3.82853009,4.95942019 4.00052859,4.92971135 4.16431806,4.87576637 C4.73738577,4.68578622 5.20608166,4.18620878 5.43788872,3.53847809 C5.46212487,3.55841428 5.48909736,3.57131417 5.5191971,3.57522322 C5.67165031,3.59711394 5.82879439,3.37547043 5.87023039,3.08150937 C5.91010277,2.78637559 5.81823993,2.531896 5.66461401,2.5115689 Z M4.16470897,4.48916067 C4.00326493,4.55717826 3.83009372,4.5950961 3.65144983,4.5950961 C2.7801211,4.5950961 2.07101822,3.71047658 2.07101822,2.62336793 C2.07101822,2.43456049 2.09212712,2.25161664 2.1316086,2.07844543 C2.27311645,1.89589248 2.47208743,1.77197538 2.6906037,1.71529406 C2.86885668,1.66994901 3.06040046,1.66838538 3.24608065,1.71529406 C3.48023315,1.77510263 3.70695843,1.9111378 3.8844296,2.13082679 C3.9735561,2.24106218 4.06893708,2.33448864 4.16509987,2.41149705 C4.61698682,2.77777566 5.0911554,2.79145736 5.22601785,2.7871574 C5.17285468,3.57874137 4.74520388,4.23859014 4.16470897,4.48916067 Z" id="Shape"></path>
                    <path d="M6.83889463,6.13057356 C6.41358926,5.45430676 5.67829571,4.98052909 4.8222123,4.98052909 L4.76474916,4.98052909 C4.61933226,4.98052909 4.46648814,5.17050925 4.30035323,5.22484513 C4.30035323,5.22484513 4.24328101,5.48127925 4.16431806,5.8225399 C4.14086372,5.92300265 4.11584576,6.03597439 4.0908278,6.14972794 C3.93602915,6.81504938 3.74331266,7.64885117 3.68584953,7.89668536 C3.68584953,7.64885117 3.4497425,6.82052206 3.29533477,6.153637 C3.26953499,6.04066526 3.25038061,5.93355711 3.22614446,5.83348525 C3.14757242,5.4914428 3.09362744,5.22445423 3.09362744,5.22445423 C2.92749253,5.17011834 2.77855747,4.98052909 2.63314057,4.98052909 L2.57528653,4.98052909 C1.71920312,4.98052909 0.930355485,5.45430676 0.504268309,6.13057356 C0.271679438,6.49997942 0.100071851,6.96202991 0.100071851,7.43150762 L0.100071851,8.52526167 C0.100071851,8.8379862 0.353378722,9.09207489 0.666885066,9.09207489 L6.51327021,9.09207489 L6.62155108,9.09207489 C6.93505742,9.09207489 7.1891461,8.8379862 7.1891461,8.52526167 L7.1891461,7.43150762 C7.18953701,6.96202991 7.07109259,6.49997942 6.83889463,6.13057356 Z" id="Shape"></path>
                </g>
                <path d="M21.9107272,22.3343952 L21.9107272,22.3343952 L21.9111181,1.92169225 C21.9111181,1.02612737 21.1828609,0.297479212 20.2869051,0.297479212 L2.54916957,0.297479212 C1.65321378,0.297479212 0.924956523,1.02612737 0.924956523,1.92169225 L0.924956523,25.9811542 C0.924956523,26.87711 1.65321378,27.6053672 2.54916957,27.6053672 L16.6397552,27.6053672 L16.6401461,27.6049763 L16.6401461,27.6057581 L18.2627955,25.9827178 L20.2869051,23.9586083 L21.9111181,22.3343952 L21.9107272,22.3343952 L21.9107272,22.3343952 Z M18.2643592,22.3343952 C17.3684034,22.3343952 16.6401461,23.0630434 16.6401461,23.9586083 L16.6401461,25.9811542 L2.54916957,25.9811542 L2.54916957,1.92169225 L20.2865142,1.92169225 L20.2876869,22.3343952 L18.2643592,22.3343952 Z" id="Shape"></path>
                <polygon id="Shape" points="22.4779313 22.6846809 22.5416733 22.620939 22.5416733 22.525939"></polygon>
                <rect id="Rectangle-path" x="12.0954768" y="3.4153428" width="6.29670847" height="1"></rect>
                <rect id="Rectangle-path" x="12.0954768" y="5.40778898" width="6.29670847" height="1"></rect>
                <rect id="Rectangle-path" x="12.0954768" y="7.39984426" width="6.29670847" height="1"></rect>
                <rect id="Rectangle-path" x="14.6000094" y="9.39189953" width="3.79217587" height="1"></rect>
            </g>
        </g>
    </g>
</svg>