<?xml version="1.0" encoding="UTF-8"?>
<svg width="45px" height="45px" viewBox="0 0 45 45" version="1.1" xmlns="http://www.w3.org/2000/svg" xmlns:xlink="http://www.w3.org/1999/xlink">
    <!-- Generator: Sketch 45.2 (43514) - http://www.bohemiancoding.com/sketch -->
    <title>analyze</title>
    <desc>Created with Sketch.</desc>
    <defs></defs>
    <g id="Page-1" stroke="none" stroke-width="1" fill="none" fill-rule="evenodd">
        <g id="analyze" fill-rule="nonzero" fill="#FFFFFF">
            <g transform="translate(7.000000, 8.000000)" id="Group">
                <g transform="translate(0.957417, 0.208080)">
                    <path d="M0.580917164,0.122149374 C0.244875968,0.159070913 -0.00727148884,0.44656046 -6.52472487e-08,0.784490503 L-6.52472487e-08,28.1748058 C3.80948345e-05,28.5349619 0.292042209,28.8269161 0.652257885,28.826952 L3.53646089,28.826952 L8.86663094,28.826952 L11.6896849,28.826952 L17.019855,28.826952 L19.8327174,28.826952 L25.1628878,28.826952 L28.0470905,28.826952 C28.2823812,28.8303767 28.5012795,28.7068327 28.6199248,28.5036503 C28.7385701,28.3004678 28.7385701,28.0491438 28.6199248,27.8459613 C28.5012795,27.6427788 28.2823812,27.5192349 28.0470905,27.5226595 L25.7641878,27.5226595 L25.7641878,19.6968393 C25.7656416,19.3592654 25.5092223,19.0763684 25.1730791,19.0446931 C25.1527072,19.0437374 25.1323018,19.0437374 25.11193,19.0446931 L19.8938664,19.0446931 C19.5336508,19.0447291 19.2416468,19.3366832 19.2416086,19.6968393 L19.2416086,27.5226595 L17.6109637,27.5226595 L17.6109637,13.175341 C17.6109274,12.8151836 17.3189228,12.5232275 16.9587059,12.5231915 L11.7406427,12.5231915 C11.7202708,12.5222357 11.6998652,12.5222357 11.6794933,12.5231915 C11.3433488,12.5548669 11.086929,12.8377658 11.0883846,13.175341 L11.0883846,27.5226595 L9.45773969,27.5226595 L9.45773969,6.65383935 C9.45770334,6.29368197 9.16569877,6.0017259 8.80548187,6.00168984 L3.58741866,6.00168984 C3.56704674,6.00073411 3.54664119,6.00073411 3.52626927,6.00168984 C3.19012474,6.03336525 2.93370499,6.31626415 2.93516052,6.65383935 L2.93516052,27.5226595 L1.3045158,27.5226595 L1.3045158,0.784490503 C1.30856261,0.596673557 1.23141418,0.416232779 1.09282825,0.289379078 C0.954242312,0.162525376 0.767678986,0.101579383 0.580917164,0.122149374 L0.580917164,0.122149374 Z M18.5893508,0.132327944 C15.7152196,0.132327944 13.3712873,2.47586882 13.3712873,5.34952728 C13.3712873,8.22318248 15.7152196,10.5667299 18.5893508,10.5667299 C19.81876,10.5667299 20.9563507,10.1419866 21.8506402,9.42546743 L27.6598125,13.7051845 C27.8490934,13.8447153 28.0985688,13.8723414 28.3138002,13.7776049 C28.5290316,13.6828685 28.6771276,13.4802471 28.7020267,13.2464427 C28.7269257,13.0126383 28.6248228,12.7833807 28.4343688,12.645455 L22.7678782,8.46761825 C23.4207523,7.59596068 23.807414,6.5169441 23.807414,5.34952402 C23.807414,2.47586556 21.4634817,0.132324682 18.5893508,0.132324682 L18.5893508,0.132327944 Z M18.5893508,1.43662696 C20.7584692,1.43662696 22.5028984,3.18076747 22.5028984,5.34952728 C22.5028984,7.51828383 20.7584692,9.2624276 18.5893508,9.2624276 C16.4202325,9.2624276 14.6758032,7.51828383 14.6758032,5.34952728 C14.6758032,3.18076747 16.4202325,1.43662696 18.5893508,1.43662696 Z M4.23967648,7.30597907 L8.15322405,7.30597907 L8.15322405,27.5226302 L4.23967648,27.5226302 L4.23967648,7.30597907 L4.23967648,7.30597907 Z M12.3929005,13.8274937 L16.3064481,13.8274937 L16.3064481,27.5226302 L12.3929005,27.5226302 L12.3929005,13.8274937 Z M20.5461246,20.3489888 L24.4596722,20.3489888 L24.4596722,27.5226302 L20.5461246,27.5226302 L20.5461246,20.3489888 Z" id="Shape"></path>
                </g>
            </g>
        </g>
    </g>
</svg>