<?xml version="1.0" encoding="UTF-8"?>
<svg width="45px" height="45px" viewBox="0 0 45 45" version="1.1" xmlns="http://www.w3.org/2000/svg" xmlns:xlink="http://www.w3.org/1999/xlink">
    <!-- Generator: Sketch 45.2 (43514) - http://www.bohemiancoding.com/sketch -->
    <title>ask</title>
    <desc>Created with Sketch.</desc>
    <defs></defs>
    <g id="Page-1" stroke="none" stroke-width="1" fill="none" fill-rule="evenodd">
        <g id="ask" fill-rule="nonzero" fill="#FFFFFF">
            <g transform="translate(7.000000, 8.000000)" id="Shape">
                <path d="M15.3263597,0 C7.19956475,0 0.59096229,6.60860246 0.59096229,14.7353974 C0.59096229,17.6824769 1.48401668,20.5402509 3.13616729,22.9961505 L2.37707106,26.6130207 C2.28687257,27.2430706 2.63918253,27.684686 3.44873633,27.684686 L7.0656066,26.9702425 C9.52150616,28.5777404 12.3792802,29.4707948 15.3263597,29.4707948 C23.4531546,29.4707948 30.0617571,22.8621923 30.0617571,14.7353974 C30.0617571,6.60860246 23.4531546,0 15.3263597,0 Z M15.3263597,28.1312132 C12.5132384,28.1312132 9.8340752,27.2828115 7.51213379,25.6306609 C7.31700141,25.5324249 7.29869379,25.5413555 7.15491204,25.5413555 L3.80595808,26.2111463 L4.47574887,22.8621923 C4.52040159,22.7282342 4.47574887,22.5938295 4.38644344,22.5049706 C2.77894554,20.2276819 1.93054387,17.5485187 1.93054387,14.7353974 C1.93054387,7.36769869 7.95866098,1.33958158 15.3263597,1.33958158 C22.6940584,1.33958158 28.7221755,7.36769869 28.7221755,14.7353974 C28.7221755,22.1030961 22.6940584,28.1312132 15.3263597,28.1312132 Z M20.4614224,11.9222761 C20.5060751,14.2442175 19.0325354,16.3424488 16.7998994,16.9680334 C16.3087195,17.1019915 15.9961505,17.5485187 15.9961505,18.0396986 L15.9961505,19.2006693 C15.9961505,19.5578911 15.6835814,19.8704601 15.3263597,19.8704601 C14.9691379,19.8704601 14.6565689,19.5578911 14.6565689,19.2006693 L14.6565689,18.0396986 C14.6565689,16.9680334 15.3710124,15.985227 16.3980249,15.672658 C18.0501756,15.1819246 19.1664935,13.6637321 19.1218408,11.9222761 C19.0771881,9.95755642 17.4250375,8.3054058 15.4156651,8.21610036 C13.4576434,8.13081367 11.4862258,9.71777131 11.4862258,12.0115815 C11.4862258,12.3688033 11.1736568,12.6813723 10.816435,12.6813723 C10.4592133,12.6813723 10.1466442,12.3688033 10.1466442,12.0115815 C10.1466442,9.09888462 12.4967169,6.87651878 15.4156651,6.87651878 C18.139481,7.01047694 20.372117,9.24311291 20.4614224,11.9222761 Z M16.2194141,21.8798325 C16.2194141,22.3710124 15.8175396,22.7728869 15.3263597,22.7728869 C14.8351798,22.7728869 14.4333053,22.3710124 14.4333053,21.8798325 C14.4333053,21.3886526 14.8351798,20.9867781 15.3263597,20.9867781 C15.8175396,20.9867781 16.2194141,21.3886526 16.2194141,21.8798325 Z"></path>
            </g>
        </g>
    </g>
</svg>