<?xml version="1.0" encoding="UTF-8"?>
<svg width="27px" height="26px" viewBox="0 0 27 26" version="1.1" xmlns="http://www.w3.org/2000/svg" xmlns:xlink="http://www.w3.org/1999/xlink">
    <!-- Generator: Sketch 45.2 (43514) - http://www.bohemiancoding.com/sketch -->
    <title>forum</title>
    <desc>Created with Sketch.</desc>
    <defs></defs>
    <g id="Page-1" stroke="none" stroke-width="1" fill="none" fill-rule="evenodd">
        <g id="Landing-Page-After-Login" transform="translate(-48.000000, -441.000000)" stroke="#FFFFFF" fill-rule="nonzero" fill="#3889B8">
            <g id="forum" transform="translate(48.000000, 441.000000)">
                <g id="Group" transform="translate(0.000000, 0.377624)">
                    <path d="M1.03294574,0.819081376 L25.8992248,0.819081376 L25.8992248,20.9489263 L22.9389535,20.9489263 C22.6119845,20.948959 22.3469319,21.2140116 22.3468992,21.5409806 L22.3468992,24.9637943 L17.9990007,21.0969399 C17.8916384,21.0022585 17.7536108,20.9496765 17.6104651,20.9489263 L1.03294574,20.9489263 L1.03294574,0.819081376 Z M6.25042393,6.14756975 C5.92344139,6.17822436 5.68322014,6.46814656 5.71387476,6.7951291 C5.74452937,7.12211164 6.03445157,7.36233289 6.36143411,7.33167828 L20.5707364,7.33167828 C20.7842515,7.3346964 20.9828518,7.22251623 21.0904901,7.0380934 C21.1981283,6.85367058 21.1981283,6.62557745 21.0904901,6.44115462 C20.9828518,6.25673179 20.7842515,6.14455162 20.5707364,6.14756975 L6.36143411,6.14756975 C6.32451237,6.14409337 6.28734568,6.14409337 6.25042393,6.14756975 L6.25042393,6.14756975 Z M6.25042393,10.2919496 C5.9234414,10.3226042 5.68322016,10.6125264 5.71387478,10.9395089 C5.74452939,11.2664915 6.03445157,11.5067127 6.36143411,11.4760581 L20.5707364,11.4760581 C20.7842515,11.4790762 20.9828518,11.3668961 21.0904901,11.1824732 C21.1981283,10.9980504 21.1981283,10.7699573 21.0904901,10.5855345 C20.9828518,10.4011116 20.7842515,10.2889315 20.5707364,10.2919496 L6.36143411,10.2919496 C6.32451237,10.2884732 6.28734568,10.2884732 6.25042393,10.2919496 L6.25042393,10.2919496 Z M6.25042393,14.4363294 C5.92344139,14.4669841 5.68322014,14.7569062 5.71387476,15.0838888 C5.74452937,15.4108713 6.03445157,15.6510926 6.36143411,15.620438 L20.5707364,15.620438 C20.7842515,15.6234561 20.9828518,15.5112759 21.0904901,15.3268531 C21.1981283,15.1424303 21.1981283,14.9143371 21.0904901,14.7299143 C20.9828518,14.5454915 20.7842515,14.4333113 20.5707364,14.4363294 L6.36143411,14.4363294 C6.32451237,14.4328531 6.28734568,14.4328531 6.25042393,14.4363294 L6.25042393,14.4363294 Z" id="Shape"></path>
                </g>
            </g>
        </g>
    </g>
</svg>