<?xml version="1.0" encoding="UTF-8"?>
<svg width="45px" height="45px" viewBox="0 0 45 45" version="1.1" xmlns="http://www.w3.org/2000/svg" xmlns:xlink="http://www.w3.org/1999/xlink">
    <!-- Generator: Sketch 45.2 (43514) - http://www.bohemiancoding.com/sketch -->
    <title>home</title>
    <desc>Created with Sketch.</desc>
    <defs></defs>
    <g id="Page-1" stroke="none" stroke-width="1" fill="none" fill-rule="evenodd">
        <g id="home" fill-rule="nonzero" fill="#FFFFFF">
            <g transform="translate(7.000000, 6.000000)" id="Shape">
                <path d="M29.5401883,12.7565173 L15.5883442,0.394123744 C15.1996754,0.0497768743 14.6139448,0.0511406243 14.2266398,0.398214994 L0.457538119,12.7606086 C0.241383747,12.9549429 0.117964373,13.2311023 0.117964373,13.5215811 L0.117964373,15.1001217 C0.117964373,15.665396 0.576184367,16.1229341 1.14077686,16.1229341 C1.70536935,16.1229341 2.16358934,15.665396 2.16358934,15.1001217 L2.16358934,13.9777554 L14.9146517,2.52975621 L27.8389102,13.9818467 L27.8389102,15.1008035 C27.8389102,15.6660779 28.2971302,16.123616 28.8617227,16.123616 C29.4263152,16.123616 29.8845352,15.6660779 29.8845352,15.1008035 L29.8845352,13.5215811 C29.8845352,13.2290567 29.7597521,12.9501698 29.5401883,12.7565173 Z M25.4005253,14.3132379 C24.8359328,14.3132379 24.3777128,14.770776 24.3777128,15.3360504 L24.3777128,30.5479996 L19.527536,30.5479996 L19.527536,20.8899222 C19.527536,20.3246478 19.069316,19.8671097 18.5047235,19.8671097 L11.4977761,19.8671097 C10.9331836,19.8671097 10.4749636,20.3246478 10.4749636,20.8899222 L10.4749636,30.5479996 L5.6247868,30.5479996 L5.6247868,15.3360504 C5.6247868,14.770776 5.1665668,14.3132379 4.60197431,14.3132379 C4.03738182,14.3132379 3.57916182,14.770776 3.57916182,15.3360504 L3.57916182,31.5708121 C3.57916182,32.1360864 4.03738182,32.5936245 4.60197431,32.5936245 L25.4005253,32.5936245 C25.9651178,32.5936245 26.4233378,32.1360864 26.4233378,31.5708121 L26.4233378,15.3360504 C26.4233378,14.7714579 25.9651178,14.3132379 25.4005253,14.3132379 Z M17.481911,30.5479996 L12.5212704,30.5479996 L12.5212704,21.9127347 L17.481911,21.9127347 L17.481911,30.5479996 Z"></path>
            </g>
        </g>
    </g>
</svg>