<?xml version="1.0" encoding="UTF-8"?>
<svg width="30px" height="33px" viewBox="0 0 30 33" version="1.1" xmlns="http://www.w3.org/2000/svg" xmlns:xlink="http://www.w3.org/1999/xlink">
    <!-- Generator: Sketch 45.2 (43514) - http://www.bohemiancoding.com/sketch -->
    <title>home</title>
    <desc>Created with Sketch.</desc>
    <defs></defs>
    <g id="Page-1" stroke="none" stroke-width="1" fill="none" fill-rule="evenodd">
        <g id="Landing-Page-After-Login" transform="translate(-45.000000, -195.000000)" fill-rule="nonzero" fill="#FFFFFF">
            <g id="home" transform="translate(45.000000, 195.000000)">
                <path d="M29.5377273,12.7554545 L15.5870455,0.394090909 C15.1984091,0.0497727273 14.6127273,0.0511363636 14.2254545,0.398181818 L0.4575,12.7595455 C0.241363636,12.9538636 0.117954545,13.23 0.117954545,13.5204545 L0.117954545,15.0988636 C0.117954545,15.6640909 0.576136364,16.1215909 1.14068182,16.1215909 C1.70522727,16.1215909 2.16340909,15.6640909 2.16340909,15.0988636 L2.16340909,13.9765909 L14.9134091,2.52954545 L27.8365909,13.9806818 L27.8365909,15.0995455 C27.8365909,15.6647727 28.2947727,16.1222727 28.8593182,16.1222727 C29.4238636,16.1222727 29.8820455,15.6647727 29.8820455,15.0995455 L29.8820455,13.5204545 C29.8820455,13.2279545 29.7572727,12.9490909 29.5377273,12.7554545 Z M25.3984091,14.3120455 C24.8338636,14.3120455 24.3756818,14.7695455 24.3756818,15.3347727 L24.3756818,30.5454545 L19.5259091,30.5454545 L19.5259091,20.8881818 C19.5259091,20.3229545 19.0677273,19.8654545 18.5031818,19.8654545 L11.4968182,19.8654545 C10.9322727,19.8654545 10.4740909,20.3229545 10.4740909,20.8881818 L10.4740909,30.5454545 L5.62431818,30.5454545 L5.62431818,15.3347727 C5.62431818,14.7695455 5.16613636,14.3120455 4.60159091,14.3120455 C4.03704545,14.3120455 3.57886364,14.7695455 3.57886364,15.3347727 L3.57886364,31.5681818 C3.57886364,32.1334091 4.03704545,32.5909091 4.60159091,32.5909091 L25.3984091,32.5909091 C25.9629545,32.5909091 26.4211364,32.1334091 26.4211364,31.5681818 L26.4211364,15.3347727 C26.4211364,14.7702273 25.9629545,14.3120455 25.3984091,14.3120455 Z M17.4804545,30.5454545 L12.5202273,30.5454545 L12.5202273,21.9109091 L17.4804545,21.9109091 L17.4804545,30.5454545 Z" id="Shape"></path>
            </g>
        </g>
    </g>
</svg>