<?xml version="1.0" encoding="UTF-8"?>
<svg width="45px" height="45px" viewBox="0 0 45 45" version="1.1" xmlns="http://www.w3.org/2000/svg" xmlns:xlink="http://www.w3.org/1999/xlink">
    <!-- Generator: Sketch 45.2 (43514) - http://www.bohemiancoding.com/sketch -->
    <title>past_papers</title>
    <desc>Created with Sketch.</desc>
    <defs></defs>
    <g id="Page-1" stroke="none" stroke-width="1" fill="none" fill-rule="evenodd">
        <g id="past_papers" fill-rule="nonzero" fill="#FFFFFF">
            <g transform="translate(6.000000, 11.000000)" id="Shape">
                <path d="M16.5945891,0.0926378153 C15.4829353,0.0926378153 14.3712815,0.255318857 13.5036493,0.634907953 L1.79061432,5.43399868 C1.32923281,5.62379322 1.00432262,5.84070128 0.733187549,6.08472284 C0.489165987,6.3287444 0.326484946,6.65410649 0.326484946,6.97946857 C0.326484946,7.33194416 0.489165987,7.63019274 0.733187549,7.90132781 C1.00432262,8.14534937 1.32923281,8.36225742 1.79061432,8.55205197 L3.2542918,9.14854912 L1.79061432,9.74504628 C1.32923281,9.93484082 1.00432262,10.1246354 0.733187549,10.3957704 C0.489165987,10.639792 0.326484946,10.9651541 0.326484946,11.2905162 C0.326484946,11.6158783 0.489165987,11.9407884 0.733187549,12.18481 C1.00432262,12.4559451 1.32923281,12.6728531 1.79061432,12.8350823 L3.2542918,13.4591448 L1.79061432,14.0551901 C1.32923281,14.2178711 1.00432262,14.4347792 0.733187549,14.7059143 C0.489165987,14.9499358 0.326484946,15.2752979 0.326484946,15.6002081 C0.326484946,15.9260221 0.489165987,16.2509323 0.733187549,16.4949538 C1.00432262,16.7660889 1.32923281,16.9558834 1.79061432,17.1452261 L13.5036493,21.9718822 C15.2655754,22.6768334 17.922699,22.6768334 19.6855289,21.9718822 L31.3985639,17.1452261 C31.8594935,16.9554315 32.1848556,16.765637 32.4559906,16.4949538 C32.7000122,16.2509323 32.8626932,15.9255702 32.8626932,15.6002081 C32.8626932,15.274846 32.7000122,14.9499358 32.4559906,14.7059143 C32.1848556,14.4343273 31.8594935,14.2178711 31.3985639,14.0551901 L29.9344345,13.4591448 L31.3985639,12.8350823 C31.8594935,12.6728531 32.1848556,12.4554932 32.4559906,12.18481 C32.7000122,11.9407884 32.8626932,11.6158783 32.8626932,11.2905162 C32.8626932,10.9651541 32.7000122,10.639792 32.4559906,10.3957704 C32.1848556,10.1246354 31.8594935,9.93484082 31.3985639,9.74504628 L29.9344345,9.14854912 L31.3985639,8.55205197 C31.8594935,8.36225742 32.1848556,8.14534937 32.4559906,7.90132781 C32.7000122,7.63019274 32.8626932,7.33194416 32.8626932,6.97946857 C32.8626932,6.65410649 32.7000122,6.3287444 32.4559906,6.08472284 C32.1848556,5.84070128 31.8594935,5.62379322 31.3985639,5.43399868 L19.6855289,0.634907953 C18.8178967,0.255318857 17.7062429,0.0926378153 16.5945891,0.0926378153 L16.5945891,0.0926378153 Z M16.5945891,0.824702502 C17.6244505,0.824702502 18.6552156,0.987383543 19.4139419,1.28563212 L31.1274288,6.11183635 C31.5070179,6.24740388 31.7777011,6.43719843 31.940834,6.59987947 C32.1030632,6.76256052 32.1306286,6.87101454 32.1306286,6.97946857 C32.1306286,7.0879226 32.1030632,7.22349013 31.940834,7.38617117 C31.778153,7.54885222 31.5070179,7.71153326 31.1274288,7.8742143 L19.4139419,12.673305 C17.8960374,13.2969157 15.2931408,13.2969157 13.7747844,12.673305 L2.06174939,7.8742143 C1.68216029,7.71153326 1.41147711,7.54885222 1.24834418,7.38617117 C1.08521125,7.22349013 1.05854963,7.0879226 1.05854963,6.97946857 C1.05854963,6.87101454 1.08566314,6.76256052 1.24834418,6.59987947 C1.41102522,6.43719843 1.68216029,6.24740388 2.06174939,6.11183635 L13.7747844,1.28563212 C14.5335107,0.987383543 15.5642758,0.824702502 16.5945891,0.824702502 L16.5945891,0.824702502 Z M4.20371643,9.52813822 L13.5036493,13.3511427 C15.2655754,14.0832074 17.922699,14.0832074 19.6855289,13.3511427 L28.9854617,9.52813822 L31.1274288,10.3957704 C31.5070179,10.5584515 31.7777011,10.748246 31.940834,10.9109271 C32.1030632,11.0464946 32.1306286,11.1820621 32.1306286,11.2905162 C32.1306286,11.3989702 32.1030632,11.5345377 31.940834,11.6972188 C31.778153,11.8598998 31.5070179,12.022129 31.1274288,12.1852619 L19.4139419,16.9843526 C17.8960374,17.6079633 15.2931408,17.6079633 13.7747844,16.9843526 L2.06174939,12.1852619 C1.68216029,12.0225809 1.41147711,11.8598998 1.24834418,11.6972188 C1.08521125,11.5345377 1.05854963,11.3989702 1.05854963,11.2905162 C1.05854963,11.1820621 1.08566314,11.0464946 1.24834418,10.9109271 C1.41102522,10.748246 1.68216029,10.5584515 2.06174939,10.3957704 L4.20371643,9.52813822 L4.20371643,9.52813822 Z M4.20371643,13.8391858 L13.5036493,17.6621903 C15.2655754,18.394255 17.922699,18.394255 19.6855289,17.6621903 L28.9854617,13.8391858 L31.1274288,14.706818 C31.5070179,14.8690472 31.7777011,15.0321801 31.940834,15.1948612 C32.1030632,15.3570903 32.1306286,15.4931097 32.1306286,15.6011119 C32.1306286,15.7095659 32.1030632,15.8451334 31.940834,15.980701 C31.778153,16.143382 31.5070179,16.3331766 31.1274288,16.4963095 L19.4139419,21.2954002 C17.8960374,21.9190109 15.2931408,21.9190109 13.7747844,21.2954002 L2.06174939,16.4963095 C1.68216029,16.3336285 1.41147711,16.1438339 1.24834418,15.980701 C1.08566314,15.8451334 1.05854963,15.7095659 1.05854963,15.6011119 C1.05854963,15.4931097 1.08566314,15.3570903 1.24834418,15.1948612 C1.41102522,15.0321801 1.68216029,14.8690472 2.06174939,14.706818 L4.20371643,13.8391858 L4.20371643,13.8391858 Z"></path>
            </g>
        </g>
    </g>
</svg>