<?xml version="1.0" encoding="UTF-8"?>
<svg width="45px" height="45px" viewBox="0 0 45 45" version="1.1" xmlns="http://www.w3.org/2000/svg" xmlns:xlink="http://www.w3.org/1999/xlink">
    <!-- Generator: Sketch 45.2 (43514) - http://www.bohemiancoding.com/sketch -->
    <title>practice</title>
    <desc>Created with Sketch.</desc>
    <defs></defs>
    <g id="Page-1" stroke="none" stroke-width="1" fill="none" fill-rule="evenodd">
        <g id="practice" fill-rule="nonzero" fill="#FFFFFF">
            <g transform="translate(7.000000, 6.000000)" id="Shape">
                <path d="M30.1055067,4.27522485 C30.0221238,4.02553949 29.8053283,3.84441337 29.5445253,3.80689108 L27.0032008,3.44463885 L26.6409486,0.903777623 C26.6034263,0.642974547 26.4223002,0.426179094 26.1726148,0.342796228 C25.9233927,0.258950124 25.647766,0.324266702 25.4615442,0.510488437 L22.6019752,3.36959427 C20.2621593,1.87750421 17.5721354,1.08212431 14.7751035,1.08212431 C6.72865686,1.08212431 0.182175375,7.62814255 0.182175375,15.6741259 C0.182175375,18.4303929 0.96782727,21.1153212 2.45806439,23.4616224 L0.227572713,29.3243644 C0.130292702,29.5800718 0.192366614,29.8691324 0.386000159,30.062766 C0.518486269,30.1957153 0.696369717,30.2661275 0.877495832,30.2661275 C0.960878698,30.2661275 1.04379833,30.2513039 1.12440176,30.2207302 L6.98760698,27.9907017 C9.33298171,29.4804756 12.0169835,30.2661275 14.7755667,30.2661275 C22.8215501,30.2661275 29.3675683,23.7201093 29.3675683,15.6741259 C29.3675683,12.8761675 28.5717252,10.1847539 27.0791719,7.84586448 L29.9382777,4.9862954 C30.1240362,4.80053691 30.1884263,4.52537345 30.1055067,4.27522485 Z M25.4606178,2.47647113 L25.6514719,3.81383966 L25.2396532,4.22565837 L23.5914518,5.87432293 L23.4005977,4.53602793 L25.4606178,2.47647113 Z M18.7455176,8.08350565 L19.0748799,10.3908949 L18.0122116,11.4535632 C17.1139929,10.7628751 15.9929565,10.3468872 14.7746402,10.3468872 C11.8372471,10.3468872 9.44740153,12.7367328 9.44740153,15.6741259 C9.44740153,18.611519 11.8372471,21.0013646 14.7746402,21.0013646 C17.7120333,21.0013646 20.1018789,18.611519 20.1018789,15.6741259 C20.1018789,14.4553463 19.6863543,13.33431 18.9947397,12.435628 L20.0569448,11.373423 L22.3647972,11.7018588 C23.0040659,12.9215648 23.3440827,14.2862644 23.3440827,15.6741259 C23.3440827,20.3996182 19.4996693,24.2440316 14.7746402,24.2440316 C10.0491479,24.2440316 6.20427127,20.3996182 6.20427127,15.6741259 C6.20427127,10.9486336 10.0491479,7.10422021 14.7746402,7.10422021 C16.1615752,7.10468345 17.5262748,7.44470025 18.7455176,8.08350565 Z M18.7121645,15.6745891 C18.7121645,17.8457863 16.9458374,19.6121134 14.7746402,19.6121134 C12.603443,19.6121134 10.837116,17.8457863 10.837116,15.6745891 C10.837116,13.503392 12.603443,11.7370649 14.7746402,11.7370649 C15.6093954,11.7370649 16.3830031,12.0001842 17.020882,12.4448928 L14.5745213,14.8912534 C14.2243133,14.9806584 13.9644367,15.2961236 13.9644367,15.6741259 C13.9644367,16.1211507 14.3271522,16.4847927 14.774177,16.4847927 C15.1526425,16.4847927 15.4690342,16.2235264 15.5579759,15.8728551 L18.0034101,13.4274209 C18.4490452,14.0652998 18.7121645,14.8393708 18.7121645,15.6745891 Z M22.3634075,7.10236726 L20.7717213,8.69405353 L20.3038507,9.16238729 L20.1129966,7.82409229 L22.1725534,5.76407225 L22.3634075,7.10236726 Z M22.6237474,10.3353063 L21.2863788,10.1449154 L21.7542494,9.67658163 L23.3459356,8.08489536 L24.6837674,8.27574948 L22.6237474,10.3353063 Z M14.7751035,28.8768763 C12.1740213,28.8768763 9.64381451,28.1028054 7.4577937,26.6385096 C7.27018225,26.5129721 7.03439403,26.4865675 6.82408391,26.5662444 L2.07681939,28.3719467 L3.88252169,23.6256087 C3.96266188,23.4152986 3.93533083,23.1790471 3.81025653,22.9918989 C2.34596075,20.8044884 1.57188981,18.2742816 1.57188981,15.6745891 C1.57188981,8.39480168 7.49485275,2.47230199 14.7751035,2.47230199 C17.2024713,2.47230199 19.541824,3.13102663 21.5967484,4.37482105 L19.2129249,6.75864455 C17.8408135,6.07490505 16.3190762,5.71450577 14.7751035,5.71450577 C9.28341523,5.71450577 4.81502007,10.1824377 4.81502007,15.6741259 C4.81502007,21.1658141 9.28341523,25.6337461 14.7751035,25.6337461 C20.2663284,25.6337461 24.7342604,21.1658141 24.7342604,15.6741259 C24.7342604,14.1292267 24.3733978,12.6065629 23.6896583,11.2339883 L26.0734818,8.85062802 C27.318666,10.9055524 27.9773906,13.2453683 27.9773906,15.6736627 C27.9773906,22.9543766 22.0548909,28.8768763 14.7751035,28.8768763 Z M25.912275,7.04724192 L24.5749064,6.8563878 L26.6349265,4.79636776 L27.9718318,4.98722188 L25.912275,7.04724192 Z"></path>
            </g>
        </g>
    </g>
</svg>