<?xml version="1.0" encoding="UTF-8"?>
<svg width="16px" height="26px" viewBox="0 0 16 26" version="1.1" xmlns="http://www.w3.org/2000/svg" xmlns:xlink="http://www.w3.org/1999/xlink">
    <!-- Generator: Sketch 45.2 (43514) - http://www.bohemiancoding.com/sketch -->
    <title>questions</title>
    <desc>Created with Sketch.</desc>
    <defs></defs>
    <g id="Page-1" stroke="none" stroke-width="1" fill="none" fill-rule="evenodd">
        <g id="Landing-Page-After-Login" transform="translate(-52.000000, -360.000000)" fill-rule="nonzero" fill="#FFFFFF">
            <g id="questions" transform="translate(52.000000, 360.181818)">
                <g id="Group" transform="translate(0.301249, 0.276413)">
                    <path d="M7.35903978,0.15694971 C3.73068326,0.15694971 0.773661616,2.51951609 0.0376673238,5.46574679 C-0.136461221,6.12824133 0.312814693,6.88924114 0.977172727,7.05691246 C1.64144409,7.22458377 2.39815352,6.76802722 2.55941094,6.10223906 C2.95464547,4.52021753 4.91222604,2.75717685 7.35903978,2.75717685 C8.56441841,2.75717685 9.82942891,3.19964884 10.7213935,3.92186193 C11.6134014,4.64407502 12.1314533,5.57408959 12.1314533,6.65751757 C12.1314533,8.0804052 11.8409646,8.71910766 11.4535308,9.21709449 C11.0661403,9.71512466 10.4453794,10.1022985 9.63675208,10.6797223 C8.82816812,11.2571894 7.86573738,12.0544797 7.16917986,13.3477027 C6.47270902,14.6409256 6.07097393,16.3722869 6.07097393,18.7919282 C6.00354137,19.5101543 6.64428068,20.2137324 7.36575703,20.2137324 C8.08727673,20.2137324 8.72801603,19.5101543 8.66058348,18.7919282 C8.66058348,16.6611721 9.01919814,15.3996286 9.46050002,14.5800803 C9.90184524,13.7606621 10.4467662,13.3119495 11.1552414,12.8059887 C11.8637166,12.3000278 12.7639586,11.7797657 13.5143408,10.8151508 C14.2647664,9.85055316 14.7346274,8.48491386 14.7346274,6.65751757 C14.7346274,4.70734721 13.7311564,3.02361346 12.348399,1.90395565 C10.9655548,0.784341183 9.18439923,0.15694971 7.35903978,0.15694971 L7.35903978,0.15694971 Z M7.37247429,21.8255266 C6.41403056,21.8255266 5.63708269,22.601651 5.63708269,23.5590113 C5.63708269,24.5163716 6.41403056,25.2924961 7.37247429,25.2924961 C8.33087468,25.2924961 9.10790922,24.5163716 9.10790922,23.5590113 C9.10790922,22.601651 8.33087468,21.8255266 7.37247429,21.8255266 Z" id="Shape"></path>
                </g>
            </g>
        </g>
    </g>
</svg>