<?xml version="1.0" encoding="UTF-8"?>
<svg width="45px" height="45px" viewBox="0 0 45 45" version="1.1" xmlns="http://www.w3.org/2000/svg" xmlns:xlink="http://www.w3.org/1999/xlink">
    <!-- Generator: Sketch 45.2 (43514) - http://www.bohemiancoding.com/sketch -->
    <title>revise</title>
    <desc>Created with Sketch.</desc>
    <defs></defs>
    <g id="Page-1" stroke="none" stroke-width="1" fill="none" fill-rule="evenodd">
        <g id="revise" fill-rule="nonzero" fill="#FFFFFF">
            <g transform="translate(10.000000, 7.000000)" id="Shape">
                <path d="M23.389398,4.50228031 L21.8348304,4.50228031 L21.8348304,0.586033369 C21.8348304,0.295323226 21.5991633,0.0596560914 21.3084531,0.0596560914 L0.667445511,0.0596560914 C0.376735369,0.0596560914 0.141068234,0.295323226 0.141068234,0.586033369 L0.141068234,31.1159154 C0.141068234,31.4066256 0.376735369,31.6422927 0.667445511,31.6422927 L21.3084531,31.6422927 C21.5991633,31.6422927 21.8348304,31.4066256 21.8348304,31.1159154 L21.8348304,20.1777956 L23.3858888,20.1777956 C25.6138646,20.1758608 27.4195131,18.3702123 27.4214479,16.1422365 L27.4214479,8.84313826 C27.4207482,8.79190363 27.4124705,8.74105458 27.3968836,8.69224344 C27.4128161,8.64230981 27.421098,8.59025209 27.4214479,8.53783944 C27.4195168,6.31123163 25.6160033,4.50614847 23.389398,4.50228031 Z M20.7820759,30.5895382 L1.19382279,30.5895382 L1.19382279,1.11241065 L20.7820759,1.11241065 L20.7820759,11.8119061 L13.9181162,11.8119061 L13.9181162,8.68522507 C13.9185335,8.48325665 13.8033523,8.29885847 13.6216713,8.21063476 C13.4399903,8.12241105 13.2238498,8.14592049 13.065385,8.27114162 L3.79412654,15.5807674 C3.66697852,15.6805535 3.59272299,15.833222 3.59272299,15.9948509 C3.59272299,16.1564797 3.66697852,16.3091482 3.79412654,16.4089343 L13.065385,23.7185601 C13.109005,23.7516698 13.1575557,23.7777214 13.2092614,23.7957621 L13.25839,23.7957621 C13.2939267,23.8054518 13.3303935,23.8113336 13.3671746,23.813308 L13.3917389,23.813308 L13.451395,23.813308 L13.4935052,23.813308 C13.7415392,23.7672993 13.9206427,23.5497107 13.9181162,23.2974583 L13.9181162,20.1777956 L20.7820759,20.1777956 L20.7820759,30.5895382 Z M26.3686934,16.1422365 C26.3667597,17.7887923 25.0324446,19.1231074 23.3858888,19.1250411 L13.3917389,19.1250411 C13.1010287,19.1250411 12.8653616,19.3607082 12.8653616,19.6514183 L12.8653616,22.2201395 L4.96970246,15.9948509 L12.8653616,9.76956227 L12.8653616,12.3382834 C12.8653616,12.6289935 13.1010287,12.8646607 13.3917389,12.8646607 L23.6841693,12.8646607 C24.714047,12.7898399 25.6754912,12.3210574 26.3686934,11.5557358 L26.3686934,16.1422365 Z M23.6245132,11.8119061 L21.8348304,11.8119061 L21.8348304,5.55503487 L23.389398,5.55503487 C25.0359538,5.55696858 26.3702688,6.8912836 26.3722025,8.53783944 C26.3729022,8.58907406 26.38118,8.63992312 26.3967668,8.68873426 C26.3808344,8.73866788 26.3725525,8.7907256 26.3722025,8.84313826 C26.3680416,10.3968258 25.1732387,11.6877623 23.6245132,11.8119061 Z"></path>
                <path d="M3.65025008,5.26377277 L18.6800759,5.26377277 C18.9707861,5.26377277 19.2064532,5.02810564 19.2064532,4.73739549 C19.2064532,4.44668535 18.9707861,4.21101822 18.6800759,4.21101822 L3.65025008,4.21101822 C3.35953994,4.21101822 3.12387281,4.44668535 3.12387281,4.73739549 C3.12387281,5.02810564 3.35953994,5.26377277 3.65025008,5.26377277 Z"></path>
                <path d="M3.65025008,7.76231025 L11.5459092,7.76231025 C11.8366194,7.76231025 12.0722865,7.52664311 12.0722865,7.23593297 C12.0722865,6.94522283 11.8366194,6.70955569 11.5459092,6.70955569 L3.65025008,6.70955569 C3.35953994,6.70955569 3.12387281,6.94522283 3.12387281,7.23593297 C3.12387281,7.52664311 3.35953994,7.76231025 3.65025008,7.76231025 L3.65025008,7.76231025 Z"></path>
                <path d="M3.65025008,10.2643569 L8.80172904,10.2643569 C9.09243918,10.2643569 9.32810631,10.0286898 9.32810631,9.73797963 C9.32810631,9.44726949 9.09243918,9.21160235 8.80172904,9.21160235 L3.65025008,9.21160235 C3.35953994,9.21160235 3.12387281,9.44726949 3.12387281,9.73797963 C3.12387281,10.0286898 3.35953994,10.2643569 3.65025008,10.2643569 Z"></path>
                <path d="M3.65025008,12.7628944 L5.93121828,12.7628944 C6.22192843,12.7628944 6.45759556,12.5272272 6.45759556,12.2365171 C6.45759556,11.945807 6.22192843,11.7101398 5.93121828,11.7101398 L3.65025008,11.7101398 C3.35953994,11.7101398 3.12387281,11.945807 3.12387281,12.2365171 C3.12387281,12.5272272 3.35953994,12.7628944 3.65025008,12.7628944 Z"></path>
                <path d="M3.65025008,20.262016 L5.93121828,20.262016 C6.22192843,20.262016 6.45759556,20.0263489 6.45759556,19.7356387 C6.45759556,19.4449286 6.22192843,19.2092614 5.93121828,19.2092614 L3.65025008,19.2092614 C3.35953994,19.2092614 3.12387281,19.4449286 3.12387281,19.7356387 C3.12387281,20.0263489 3.35953994,20.262016 3.65025008,20.262016 Z"></path>
                <path d="M3.65025008,22.7605535 L8.80172904,22.7605535 C9.09243918,22.7605535 9.32810631,22.5248863 9.32810631,22.2341762 C9.32810631,21.943466 9.09243918,21.7077989 8.80172904,21.7077989 L3.65025008,21.7077989 C3.35953994,21.7077989 3.12387281,21.943466 3.12387281,22.2341762 C3.12387281,22.5248863 3.35953994,22.7605535 3.65025008,22.7605535 Z"></path>
                <path d="M3.65025008,25.2661093 L11.5459092,25.2661093 C11.8366194,25.2661093 12.0722865,25.0304422 12.0722865,24.739732 C12.0722865,24.4490219 11.8366194,24.2133548 11.5459092,24.2133548 L3.65025008,24.2133548 C3.35953994,24.2133548 3.12387281,24.4490219 3.12387281,24.739732 C3.12387281,25.0304422 3.35953994,25.2661093 3.65025008,25.2661093 Z"></path>
                <path d="M18.739732,6.70955569 L15.7569275,6.70955569 C15.4662173,6.70955569 15.2305502,6.94522283 15.2305502,7.23593297 C15.2305502,7.52664311 15.4662173,7.76231025 15.7569275,7.76231025 L18.739732,7.76231025 C19.0304422,7.76231025 19.2661093,7.52664311 19.2661093,7.23593297 C19.2661093,6.94522283 19.0304422,6.70955569 18.739732,6.70955569 L18.739732,6.70955569 Z"></path>
                <path d="M18.739732,9.21160235 L15.7569275,9.21160235 C15.4662173,9.21160235 15.2305502,9.44726949 15.2305502,9.73797963 C15.2305502,10.0286898 15.4662173,10.2643569 15.7569275,10.2643569 L18.739732,10.2643569 C19.0304422,10.2643569 19.2661093,10.0286898 19.2661093,9.73797963 C19.2661093,9.44726949 19.0304422,9.21160235 18.739732,9.21160235 Z"></path>
                <path d="M15.7569275,22.7605535 L18.739732,22.7605535 C19.0304422,22.7605535 19.2661093,22.5248863 19.2661093,22.2341762 C19.2661093,21.943466 19.0304422,21.7077989 18.739732,21.7077989 L15.7569275,21.7077989 C15.4662173,21.7077989 15.2305502,21.943466 15.2305502,22.2341762 C15.2305502,22.5248863 15.4662173,22.7605535 15.7569275,22.7605535 L15.7569275,22.7605535 Z"></path>
                <path d="M15.7569275,25.2661093 L18.739732,25.2661093 C19.0304422,25.2661093 19.2661093,25.0304422 19.2661093,24.739732 C19.2661093,24.4490219 19.0304422,24.2133548 18.739732,24.2133548 L15.7569275,24.2133548 C15.4662173,24.2133548 15.2305502,24.4490219 15.2305502,24.739732 C15.2305502,25.0304422 15.4662173,25.2661093 15.7569275,25.2661093 L15.7569275,25.2661093 Z"></path>
                <path d="M18.6800759,26.708383 L3.65025008,26.708383 C3.35953994,26.708383 3.12387281,26.9440502 3.12387281,27.2347603 C3.12387281,27.5254705 3.35953994,27.7611376 3.65025008,27.7611376 L18.6800759,27.7611376 C18.9707861,27.7611376 19.2064532,27.5254705 19.2064532,27.2347603 C19.2064532,26.9440502 18.9707861,26.708383 18.6800759,26.708383 Z"></path>
            </g>
        </g>
    </g>
</svg>